<svg xmlns="http://www.w3.org/2000/svg" width="271.02" height="49.19" viewBox="0 0 271.02 49.19">
  <title>pw-logo</title>
  <g id="Layer_2" data-name="Layer 2">
    <g id="Layer_1-2" data-name="Layer 1">
      <g id="Layer_2-2" data-name="Layer 2">
        <g id="Layer_1-2-2" data-name="Layer 1-2">
          <path d="M15.78.32C8.63,2.88,10.39,13.2,29.35,22.86S60.06,27.55,58,25.21s-14.66,3.15-25.93-8.34S21.15-1.61,15.78.32" style="fill: #f60"/>
          <path d="M45.34,49.16a2,2,0,0,1-.7,0c-1.42-.29-1.89-2-2-3.5-.2-3.63-2.93-6.33-6-8.14C27.27,31.91,1.32,40.89.11,39-1.5,36.5,15,31.84,16.84,31.41A83.7,83.7,0,0,1,34.28,29a20.12,20.12,0,0,1,10.25,2.34,12.19,12.19,0,0,1,6.12,8.28,8.81,8.81,0,0,1-4.13,9.08,3.75,3.75,0,0,1-1.18.43" style="fill: #f60"/>
          <path d="M40,8.34a8.1,8.1,0,0,0-1.42.28,3.8,3.8,0,0,0-2.8,3.4c-.28,3.72,4.59,7,7.68,7.85,3.63,1,6.33-1.39,5.52-5.09a8.26,8.26,0,0,0-9-6.45" style="fill: #f60"/>
          <path d="M114.08,19.17H114l-3,7.35h6.1l-3-7.36m-.07,12h-3.66a.44.44,0,0,0-.49.34c-.52,1.3-1,2.59-1.58,3.89a1.22,1.22,0,0,1-1.34.92h-4.81a1.26,1.26,0,0,1-1.22-1.84q4.86-11.39,9.69-22.79A1.31,1.31,0,0,1,112,10.8h4.37a1.25,1.25,0,0,1,1.26.83l9.73,22.88a1.2,1.2,0,0,1-1.17,1.78h-5.05a1.25,1.25,0,0,1-1.27-.87c-.52-1.31-1.07-2.61-1.59-3.92a.46.46,0,0,0-.51-.36H114" style="fill: #f60"/>
          <path d="M179,10.7h-5c-.75,0-.93.14-1.15.87l-3.94,12.91a1.67,1.67,0,0,1-.16.43l-.14-.4-4.32-13.1c-.2-.61-.41-.77-1.06-.77h-4.07a.88.88,0,0,0-1,.74l-3.39,10.31-1.07,3.24c-.08-.23-.13-.36-.17-.49l-3.94-12.91c-.21-.68-.41-.83-1.12-.83H140.2c-.7,0-.89.14-1.12.79l-5.17,15.25-.3.86-.18-.43-6.09-15.78a.88.88,0,0,0-1-.69H121.2c-.77,0-1.13.44-.93,1.12l10.31,24.25a1.71,1.71,0,0,1-1.66,2.53h-6.7c-.65,0-1,.36-.75,1s1,2.55,1.3,3.18.47,1,1,1.13a3.47,3.47,0,0,0,.91.08h7.16c1.47,0,3.32,0,4.46-3.64l7.86-23.2h0l.15.43,6.1,18a.87.87,0,0,0,1,.72h4.1c.7,0,.9-.14,1.12-.79l3.74-10.87.77-2.21c.08.21.14.35.18.48l4.35,12.63a.91.91,0,0,0,1,.78h4.21a.86.86,0,0,0,1-.68l8-23.67c.26-.77-.08-1.24-.89-1.24" style="fill: #f60"/>
          <path d="M185.49,23.51a13.66,13.66,0,0,0,.42,2,6,6,0,0,0,4.93,4.26,5.94,5.94,0,0,0,6-2.27A6.78,6.78,0,0,0,198,21.59a6.3,6.3,0,0,0-9-4.39c-2.44,1.2-3.42,3.35-3.54,6.31m7.27-13.42,1.54.21a12.86,12.86,0,0,1,10.8,10.41A12.94,12.94,0,0,1,195,36h0a13.32,13.32,0,0,1-12.85-3.61,12.13,12.13,0,0,1-3.58-7.7,12.79,12.79,0,0,1,4.16-11.11,13,13,0,0,1,7.37-3.34l1.07-.14Z" style="fill: #f60"/>
          <path d="M253.92,16.5V30.09a22.89,22.89,0,0,0,4.66-.16,5.86,5.86,0,0,0,5.14-4.22,7.58,7.58,0,0,0,.22-3.88,6,6,0,0,0-4.34-5c-1.85-.58-3.43-.39-5.68-.35M271,24a10.79,10.79,0,0,1-.2,1.54,13.62,13.62,0,0,1-1.25,3.68,11.63,11.63,0,0,1-2,2.81,12.27,12.27,0,0,1-2.75,2.12,15.5,15.5,0,0,1-2.73,1.21,13.74,13.74,0,0,1-4.4.69h-9.42a.88.88,0,0,1-1-1V11.39a.89.89,0,0,1,1-1h9.39a13.7,13.7,0,0,1,9.22,3.35,12.13,12.13,0,0,1,2.55,3.13,12.36,12.36,0,0,1,1.36,3.8A13.71,13.71,0,0,1,271,24" style="fill: #f60"/>
          <path d="M69.58,19.93v3c0,.2,0,.32.28.32,1.4,0,2.8,0,4.2,0a3.2,3.2,0,0,0,3.25-3.72,2.67,2.67,0,0,0-1.62-2.36,5.15,5.15,0,0,0-2.14-.44H69.93c-.27,0-.35.08-.35.34v3m-6.45-8.56a1.19,1.19,0,0,1,1.29-.75h9.79a10.56,10.56,0,0,1,5.55,1.51,8.26,8.26,0,0,1,4,6.19,9.6,9.6,0,0,1-.84,5.77,8.88,8.88,0,0,1-5.72,4.53,14,14,0,0,1-3.94.54h-3v6.06a.94.94,0,0,1-1.08,1.07H64.44a1.18,1.18,0,0,1-1.29-.75Z" style="fill: #f60"/>
          <path d="M216.35,22.45h0a22.5,22.5,0,0,0,3.18-.15,2.62,2.62,0,0,0,2.41-1.88,4.26,4.26,0,0,0,.11-1.34A2.24,2.24,0,0,0,220.62,17a5.15,5.15,0,0,0-1.73-.41c-1.74-.06-3.48,0-5.22,0-.23,0-.32.07-.31.31v5.29c0,.24.08.31.31.31h2.68m-2.35,6v6.62a1,1,0,0,1-.91,1.08H208a.94.94,0,0,1-1.07-1.06q0-11.83,0-23.66a.92.92,0,0,1,.78-1h12.05a9.94,9.94,0,0,1,5,1.41,7.54,7.54,0,0,1,3.5,4.44,10.08,10.08,0,0,1,0,5.84,7.88,7.88,0,0,1-3.87,4.76l-.29.17-.05.07.2.3,4.87,7.14a1.47,1.47,0,0,1,.25.51.89.89,0,0,1-.68,1.06l-.2,0h-6.17a1,1,0,0,1-.84-.54c-1.52-2.27-3-4.54-4.55-6.82a.59.59,0,0,0-.57-.31H214" style="fill: #f60"/>
          <path d="M238.1,29.66h6.25c.79,0,1.06.27,1.06,1.06q0,2.15,0,4.3c0,.76-.28,1-1,1H232.23c-.76,0-1-.27-1-1V11.52c0-.73.29-1,1-1H237c.76,0,1,.29,1,1V29.66" style="fill: #f60"/>
          <path d="M85.51,23.46V11.8c0-.78.26-1,1-1h4.78c.76,0,1,.26,1,1V29.33c0,.48,0,.48.47.48h5.83c.69,0,1,.27,1,1v4.44c0,.69-.28,1-1,1H86.48c-.68,0-1-.28-1-1V23.46" style="fill: #f60"/>
          <path d="M269.48,11.26c.16,0,.25-.08.25-.2s-.1-.2-.25-.2h-.3v.4Zm-.66-.7h.68c.34,0,.58.15.58.48a.44.44,0,0,1-.32.45l.37.52h-.42l-.31-.46h-.22V12h-.35Zm1.81.75h0a1.24,1.24,0,0,0-2.47,0h0a1.22,1.22,0,0,0,1.2,1.24h0a1.24,1.24,0,0,0,1.23-1.25h0m-2.63,0h0a1.4,1.4,0,0,1,2.79,0h0a1.4,1.4,0,0,1-2.79,0" style="fill: #f60"/>
        </g>
      </g>
    </g>
  </g>
</svg>
