<?xml version="1.0" encoding="utf-8" standalone="no"?>
<svg xmlns="http://www.w3.org/2000/svg" xmlns:xlink="http://www.w3.org/1999/xlink" width="408.691" height="79.348" viewBox="0 0 408.691 79.348">
  <defs>
    <style>.a{fill:none;}.b{clip-path:url(#a);}.c{fill:#194b9b;}.d,.e{fill:#ee7311;}.e{font-size:1px;font-family:Gotham-Medium, Gotham;font-weight:500;}</style>
    <clipPath id="a">
      <rect class="a" width="408.691" height="79.348" />
    </clipPath>
  </defs>
  <g class="b">
    <path class="c" d="M215.274,31.526c4.6-1.238,7.153-4.552,7.153-9.186,0-5.533-4.4-9.387-11.11-9.387H187.874v12.8h-6.806c1.015,3.2,3.53,5.1,6.806,5.89v9.2h7.98V32.068l10.235,0,7.6,8.774h9.541Zm-.736-8.71c0,1.777-1.4,2.893-3.843,2.939H195.855v-6.5h14.738c.035,0,.066.009.1.009,2.442.045,3.843,1.163,3.843,2.939Z" transform="translate(135.672 9.706)" />
    <path class="c" d="M23.78,7.654A23.175,23.175,0,1,0,43.844,42.433a22.729,22.729,0,0,0,3.11-11.6A23.174,23.174,0,0,0,23.78,7.654M9.61,43.558l2.514-14.181c.892-5.393,3.731-9.819,8.586-11.276L18.189,32.317c-1.05,5.524-3.792,9.752-8.579,11.241m8.033,3.488L21.43,25.834c.892-5.395,3.731-9.817,8.585-11.276L26.222,35.805c-1.048,5.524-3.791,9.751-8.579,11.241M35.524,32.317c-1.048,5.524-3.791,9.752-8.579,11.241l2.515-14.181c.892-5.393,3.729-9.819,8.584-11.276Z" transform="translate(0.453 5.735)" />
    <path class="c" d="M84.684,40.84h-9.3L69.9,21.885h-.089L64.369,40.84h-9.25L45.052,12.954h8.706L59.879,32h.182L65.23,12.954h9.3L79.74,32h.136L86,12.954h8.706Z" transform="translate(33.757 9.707)" />
    <path class="c" d="M110.748,37.472a23.662,23.662,0,0,1-14.51,4.534,23.7,23.7,0,0,1-14.556-4.534,12.59,12.59,0,0,1-5.033-10.249,12.543,12.543,0,0,1,5.078-10.2,23.47,23.47,0,0,1,14.51-4.534A23.424,23.424,0,0,1,110.7,17.021a12.54,12.54,0,0,1,5.08,10.2,12.587,12.587,0,0,1-5.034,10.249M96.238,18.744c-6.983,0-11.428,3.492-11.428,8.479,0,5.08,4.354,8.526,11.428,8.526,6.983,0,11.335-3.446,11.335-8.526,0-4.943-4.443-8.479-11.335-8.479" transform="translate(57.432 9.356)" />
    <path class="c" d="M227.728,18.842c-5.442,0-8.3,1.088-8.3,2.675,0,2.313,3.855,2.041,11.155,2.676,10.249.861,15.1,3.128,15.1,8.162,0,5.941-5.85,9.749-16.688,9.749a34.1,34.1,0,0,1-19.543-5.668l4.127-4.989c4.4,2.9,9.341,4.125,15.373,4.125,5.442,0,8.253-1.041,8.253-2.627,0-1.86-4.49-2.087-12.7-2.72-8.841-.682-13.286-3.583-13.286-8.481,0-5.578,5.76-9.3,15.826-9.3,7.254,0,12.878,1.225,17.458,4.308l-3.764,4.987a31.622,31.622,0,0,0-13.013-2.9" transform="translate(156.941 9.327)" />
    <path class="c" d="M155.434,40.906,137.787,26.76l17.148-13.739h10.748L148.715,26.76,166.18,40.906Z" transform="translate(103.242 9.756)" />
    <rect class="c" width="7.98" height="27.885" transform="translate(233.035 22.776)" />
    <rect class="d" width="2.071" height="75.578" transform="translate(62.464)" />
    <path class="d" d="M141.053,40.263v-.024a4.176,4.176,0,0,1,4.247-4.27,4.319,4.319,0,0,1,3.245,1.286l-.932,1.074a3.3,3.3,0,0,0-2.325-1.016,2.768,2.768,0,0,0-2.713,2.9v.023a2.783,2.783,0,0,0,2.725,2.927,3.227,3.227,0,0,0,2.372-1.062l.931.943a4.256,4.256,0,0,1-3.35,1.464,4.148,4.148,0,0,1-4.2-4.247" transform="translate(105.689 26.95)" />
    <path class="d" d="M149.794,36.049h3.68a3.324,3.324,0,0,1,2.383.826,2.494,2.494,0,0,1,.684,1.781v.024a2.482,2.482,0,0,1-1.957,2.5l2.23,3.126h-1.723l-2.029-2.879h-1.817v2.879h-1.45Zm3.574,4.093c1.039,0,1.7-.544,1.7-1.38v-.025c0-.885-.637-1.368-1.709-1.368h-2.113v2.773Z" transform="translate(112.239 27.011)" />
    <path class="d" d="M158.218,36.049h6.123v1.3H159.67v2.148h4.141V40.8H159.67v2.206h4.73v1.3h-6.182Z" transform="translate(118.551 27.011)" />
    <path class="d" d="M166.283,36.049h3.081a4.114,4.114,0,0,1,4.387,4.106v.023a4.133,4.133,0,0,1-4.387,4.13h-3.081Zm1.452,1.321v5.615h1.629a2.691,2.691,0,0,0,2.867-2.783v-.024a2.711,2.711,0,0,0-2.867-2.808Z" transform="translate(124.594 27.011)" />
    <rect class="d" width="1.452" height="8.258" transform="translate(306.393 63.06)" />
    <path class="d" d="M183.07,37.393h-2.631V36.048h6.712v1.345h-2.629v6.913H183.07Z" transform="translate(135.201 27.01)" />
  </g>
  <text class="e" transform="translate(345.652 65.687)">
    <tspan x="0" y="0"></tspan>
  </text>
  <g class="b">
    <path class="d" d="M192.44,40.8V36.048h1.452v4.7c0,1.534.791,2.349,2.087,2.349s2.076-.768,2.076-2.29V36.048h1.452v4.683c0,2.466-1.392,3.7-3.551,3.7S192.44,43.2,192.44,40.8" transform="translate(144.193 27.01)" />
    <path class="d" d="M201.168,36.049h1.345l4.424,5.71v-5.71h1.427v8.258h-1.216L202.6,38.431v5.876h-1.427Z" transform="translate(150.733 27.011)" />
    <rect class="d" width="1.452" height="8.258" transform="translate(367.511 63.06)" />
    <path class="d" d="M215.518,40.263v-.024a4.319,4.319,0,0,1,8.636-.023v.023a4.319,4.319,0,0,1-8.636.024m7.114,0v-.024a2.821,2.821,0,0,0-2.808-2.927,2.783,2.783,0,0,0-2.785,2.9v.023a2.821,2.821,0,0,0,2.808,2.927,2.78,2.78,0,0,0,2.785-2.9" transform="translate(161.485 26.95)" />
    <path class="d" d="M225.009,36.049h1.345l4.424,5.71v-5.71h1.427v8.258H230.99l-4.553-5.876v5.876h-1.427Z" transform="translate(168.596 27.011)" />
    <path class="c" d="M137.358,31.526c4.6-1.238,7.153-4.552,7.153-9.186,0-5.533-4.4-9.387-11.11-9.387H109.959v12.8h-6.807c1.015,3.2,3.53,5.1,6.807,5.89v9.2h7.98V32.068l10.235,0,7.6,8.774h9.541Zm-.736-8.71c0,1.777-1.4,2.893-3.843,2.939H117.939v-6.5h14.738c.035,0,.066.009.1.009,2.442.045,3.843,1.163,3.843,2.939Z" transform="translate(77.291 9.706)" />
    <path class="c" d="M169.885,34.538V30.094H192.2v-6.3h-22.31V19.257H192.2v-6.3H161.9V23.78h-6.731a8.773,8.773,0,0,0,6.731,5.872V40.841h31.379v-6.3Z" transform="translate(116.268 9.706)" />
  </g>
</svg>